<?xml version="1.0" encoding="UTF-8"?>
<svg xmlns="http://www.w3.org/2000/svg" xmlns:xlink="http://www.w3.org/1999/xlink" width="842pt" height="595pt" viewBox="0 0 842 595" version="1.1">
<g id="surface1">
<path style="fill:none;stroke-width:40;stroke-linecap:round;stroke-linejoin:round;stroke:rgb(0%,0%,0%);stroke-opacity:1;stroke-miterlimit:10;" d="M 4639.552083 -0.0520833 C 4639.552083 2562.317708 2562.338542 4639.53125 -0.03125 4639.53125 C -2562.270833 4639.53125 -4639.484375 2562.317708 -4639.484375 -0.0520833 C -4639.484375 -2562.291667 -2562.270833 -4639.505208 -0.03125 -4639.505208 C 2562.338542 -4639.505208 4639.552083 -2562.291667 4639.552083 -0.0520833 " transform="matrix(0.03,0,0,-0.03,304.415,320.225)"/>
<path style="fill:none;stroke-width:40;stroke-linecap:round;stroke-linejoin:round;stroke:rgb(0%,0%,0%);stroke-opacity:1;stroke-miterlimit:10;" d="M 5103.484375 -0.0520833 C 5103.484375 2818.567708 2818.588542 5103.463542 -0.03125 5103.463542 C -2818.520833 5103.463542 -5103.546875 2818.567708 -5103.546875 -0.0520833 C -5103.546875 -2818.541667 -2818.520833 -5103.4375 -0.03125 -5103.4375 C 2818.588542 -5103.4375 5103.484375 -2818.541667 5103.484375 -0.0520833 " transform="matrix(0.03,0,0,-0.03,304.415,320.225)"/>
<path style="fill:none;stroke-width:40;stroke-linecap:round;stroke-linejoin:round;stroke:rgb(0%,0%,0%);stroke-opacity:1;stroke-miterlimit:10;" d="M 5642.96875 15354.036458 L 5642.96875 18839.973958 " transform="matrix(0,-0.03,-0.03,0,794,581)"/>
<path style="fill:none;stroke-width:40;stroke-linecap:round;stroke-linejoin:round;stroke:rgb(0%,0%,0%);stroke-opacity:1;stroke-miterlimit:10;" d="M 5758.984375 18955.989583 L 11625 18955.989583 " transform="matrix(0,-0.03,-0.03,0,794,581)"/>
<path style="fill:none;stroke-width:40;stroke-linecap:round;stroke-linejoin:round;stroke:rgb(0%,0%,0%);stroke-opacity:1;stroke-miterlimit:10;" d="M 11741.015625 18839.973958 L 11741.015625 18144.010417 " transform="matrix(0,-0.03,-0.03,0,794,581)"/>
<path style="fill:none;stroke-width:40;stroke-linecap:round;stroke-linejoin:round;stroke:rgb(0%,0%,0%);stroke-opacity:1;stroke-miterlimit:10;" d="M 11625 18027.994792 L 6686.979167 18027.994792 " transform="matrix(0,-0.03,-0.03,0,794,581)"/>
<path style="fill:none;stroke-width:40;stroke-linecap:round;stroke-linejoin:round;stroke:rgb(0%,0%,0%);stroke-opacity:1;stroke-miterlimit:10;" d="M 6570.963542 17911.979167 L 6570.963542 16048.958333 " transform="matrix(0,-0.03,-0.03,0,794,581)"/>
<path style="fill:none;stroke-width:40;stroke-linecap:round;stroke-linejoin:round;stroke:rgb(0%,0%,0%);stroke-opacity:1;stroke-miterlimit:10;" d="M 11741.015625 13714.973958 L 11741.015625 14698.958333 " transform="matrix(0,-0.03,-0.03,0,794,581)"/>
<path style="fill:none;stroke-width:40;stroke-linecap:round;stroke-linejoin:round;stroke:rgb(0%,0%,0%);stroke-opacity:1;stroke-miterlimit:10;" d="M 11707.942708 14779.947917 L 8773.958333 17714.0625 " transform="matrix(0,-0.03,-0.03,0,794,581)"/>
<path style="fill:none;stroke-width:40;stroke-linecap:round;stroke-linejoin:round;stroke:rgb(0%,0%,0%);stroke-opacity:1;stroke-miterlimit:10;" d="M 8610.026042 17714.0625 L 5676.041667 14779.947917 " transform="matrix(0,-0.03,-0.03,0,794,581)"/>
<path style="fill:none;stroke-width:40;stroke-linecap:round;stroke-linejoin:round;stroke:rgb(0%,0%,0%);stroke-opacity:1;stroke-miterlimit:10;" d="M 5642.96875 14698.958333 L 5642.96875 13714.973958 " transform="matrix(0,-0.03,-0.03,0,794,581)"/>
<path style="fill:none;stroke-width:40;stroke-linecap:round;stroke-linejoin:round;stroke:rgb(0%,0%,0%);stroke-opacity:1;stroke-miterlimit:10;" d="M 5839.973958 13630.989583 L 8610.026042 16401.041667 " transform="matrix(0,-0.03,-0.03,0,794,581)"/>
<path style="fill:none;stroke-width:40;stroke-linecap:round;stroke-linejoin:round;stroke:rgb(0%,0%,0%);stroke-opacity:1;stroke-miterlimit:10;" d="M 8773.958333 16401.041667 L 11544.010417 13630.989583 " transform="matrix(0,-0.03,-0.03,0,794,581)"/>
<path style="fill:none;stroke-width:40;stroke-linecap:round;stroke-linejoin:round;stroke:rgb(0%,0%,0%);stroke-opacity:1;stroke-miterlimit:10;" d="M 6539.0625 15970.963542 L 5839.0625 15270.963542 " transform="matrix(0,-0.03,-0.03,0,794,581)"/>
<path style="fill:none;stroke-width:40;stroke-linecap:round;stroke-linejoin:round;stroke:rgb(0%,0%,0%);stroke-opacity:1;stroke-miterlimit:10;" d="M 0.00520833 115.515625 C -63.796875 115.515625 -115.489583 63.822917 -115.489583 0.0208333 " transform="matrix(0.03,0,0,-0.03,228.785,232.235)"/>
<path style="fill:none;stroke-width:40;stroke-linecap:round;stroke-linejoin:round;stroke:rgb(0%,0%,0%);stroke-opacity:1;stroke-miterlimit:10;" d="M 0.00520833 115.515625 C -63.796875 115.515625 -115.489583 63.822917 -115.489583 0.0208333 " transform="matrix(0.03,0,0,-0.03,228.785,232.235)"/>
<path style="fill:none;stroke-width:40;stroke-linecap:round;stroke-linejoin:round;stroke:rgb(0%,0%,0%);stroke-opacity:1;stroke-miterlimit:10;" d="M 115.463542 0.0208333 C 115.463542 63.822917 63.770833 115.515625 -0.03125 115.515625 " transform="matrix(0.03,0,0,-0.03,249.665,232.235)"/>
<path style="fill:none;stroke-width:40;stroke-linecap:round;stroke-linejoin:round;stroke:rgb(0%,0%,0%);stroke-opacity:1;stroke-miterlimit:10;" d="M -115.494792 0 C -115.494792 -63.802083 -63.802083 -115.494792 0.00000000000181899 -115.494792 " transform="matrix(0.03,0,0,-0.03,256.625,380.375)"/>
<path style="fill:none;stroke-width:40;stroke-linecap:round;stroke-linejoin:round;stroke:rgb(0%,0%,0%);stroke-opacity:1;stroke-miterlimit:10;" d="M -115.489583 0.00520833 C -115.489583 -63.796875 -63.796875 -115.489583 0.00520833 -115.489583 " transform="matrix(0.03,0,0,-0.03,228.785,408.215)"/>
<path style="fill:none;stroke-width:40;stroke-linecap:round;stroke-linejoin:round;stroke:rgb(0%,0%,0%);stroke-opacity:1;stroke-miterlimit:10;" d="M -81.692708 81.71875 C -126.744792 36.536458 -126.744792 -36.510417 -81.692708 -81.692708 " transform="matrix(0.03,0,0,-0.03,265.025,320.225)"/>
<path style="fill:none;stroke-width:40;stroke-linecap:round;stroke-linejoin:round;stroke:rgb(0%,0%,0%);stroke-opacity:1;stroke-miterlimit:10;" d="M -81.671875 81.71875 C -126.723958 36.536458 -126.723958 -36.510417 -81.671875 -81.692708 " transform="matrix(0.03,0,0,-0.03,304.415,320.225)"/>
<path style="fill:none;stroke-width:40;stroke-linecap:round;stroke-linejoin:round;stroke:rgb(0%,0%,0%);stroke-opacity:1;stroke-miterlimit:10;" d="M -0.619792 -115.489583 C 46.645833 -115.75 89.354167 -87.104167 107.0625 -43.223958 C 124.770833 0.65625 113.963542 50.916667 79.71875 83.598958 " transform="matrix(0.03,0,0,-0.03,333.335,408.215)"/>
<path style="fill:none;stroke-width:40;stroke-linecap:round;stroke-linejoin:round;stroke:rgb(0%,0%,0%);stroke-opacity:1;stroke-miterlimit:10;" d="M 83.401042 79.916667 C 61.265625 103.09375 30.536458 115.854167 -1.494792 115.463542 " transform="matrix(0.03,0,0,-0.03,312.455,387.335)"/>
<path style="fill:none;stroke-width:40;stroke-linecap:round;stroke-linejoin:round;stroke:rgb(0%,0%,0%);stroke-opacity:1;stroke-miterlimit:10;" d="M 79.953125 -83.3125 C 113.9375 -50.630208 124.744792 -0.630208 107.166667 43.119792 C 89.588542 86.869792 47.140625 115.515625 0.00520833 115.515625 " transform="matrix(0.03,0,0,-0.03,382.535,232.235)"/>
<path style="fill:none;stroke-width:40;stroke-linecap:round;stroke-linejoin:round;stroke:rgb(0%,0%,0%);stroke-opacity:1;stroke-miterlimit:10;" d="M 0.0208333 115.515625 C -31.229167 115.515625 -61.177083 102.885417 -82.921875 80.489583 " transform="matrix(0.03,0,0,-0.03,353.015,232.235)"/>
<path style="fill:none;stroke-width:40;stroke-linecap:round;stroke-linejoin:round;stroke:rgb(0%,0%,0%);stroke-opacity:1;stroke-miterlimit:10;" d="M 0.00520833 -115.489583 C 47.140625 -115.489583 89.588542 -86.84375 107.166667 -43.09375 C 124.744792 0.65625 113.9375 50.65625 79.953125 83.338542 " transform="matrix(0.03,0,0,-0.03,382.535,408.215)"/>
<path style="fill:none;stroke-width:40;stroke-linecap:round;stroke-linejoin:round;stroke:rgb(0%,0%,0%);stroke-opacity:1;stroke-miterlimit:10;" d="M -82.921875 -80.463542 C -61.177083 -102.859375 -31.229167 -115.489583 0.0208333 -115.489583 " transform="matrix(0.03,0,0,-0.03,353.015,408.215)"/>
</g>
</svg>
