<svg xmlns="http://www.w3.org/2000/svg" viewBox="0 0 1000 1000">
<path d="M658.9,960.1c12,11.9,28.6,20,45.5,21.4c17.1,1.4,34.7-2.8,49-12.4c3.9-2.6,7.6-5.7,10.8-9l0.1-0.1l203.9-203.9c29.2-29.2,29.2-76.4,0-105.6c-29.2-29.2-76.4-29.2-105.6,0L786,727V93.2c0-41.2-33.4-74.6-74.6-74.6c-41.2,0-74.6,33.4-74.6,74.6V727l-78.5-78.5c-29.2-29.2-76.4-29.2-105.6,0c-29.2,29.2-29.2,76.4,0,105.6l206,206C658.8,960,658.8,960.1,658.9,960.1z"/><path d="M84.6,373.7c19.1,0,38.2-7.3,52.7-21.9l78.5-78.5v633.9c0,41.2,33.4,74.6,74.6,74.6c41.2,0,74.6-33.4,74.6-74.6V273.3l76.5,76.5c14.5,14.5,33.6,21.9,52.7,21.9c19.1,0,38.2-7.3,52.7-21.9c29.2-29.2,29.2-76.4,0-105.6c-5.4-5.4-10.8-10.8-16.2-16.2c-13.2-13.2-26.4-26.6-39.7-39.7c-17.1-17-34.1-34-51.1-51.1c-16.7-16.9-34-33.3-50.6-50.5C373.3,70.2,357,54,339.7,38.4c-17.9-16.1-41.3-24.1-65.4-18.4c-6.2,1.4-12.7,3.8-18.3,6.9c-16.6,9.4-29.9,24.8-43.3,38.1c-16.4,16.2-32.5,32.7-48.9,49.2c-19.4,19.5-39,38.9-58.5,58.3c-16.3,16.5-32.8,33-49.3,49.6c-8,8-15.9,15.8-23.9,23.8c-0.1,0.1-0.3,0.3-0.4,0.4c-29.2,29.2-29.2,76.4,0,105.6C46.4,366.4,65.5,373.7,84.6,373.7z"/></svg>