<svg xmlns="http://www.w3.org/2000/svg" viewBox="2.757 3.149 493.825 493.719" width="493.825" height="493.719">
  <path id="Level_1" style="opacity: 1; fill: rgb(190, 80, 70); stroke: rgb(0, 0, 0); stroke-width: 7;" d="M 203.003 110.256 C 145.17 107.605 95.455 100.789 60.235 91.47 C 42.605 86.805 28.505 81.479 18.856 75.741 C 9.143 69.964 3.615 63.399 3.615 56.755 C 3.615 51.715 7.11 46.533 13.535 41.794 C 19.9 37.1 29.396 32.514 41.723 28.199 C 114.43 2.789 271.337 -4.567 386.077 12.056 C 436.533 19.377 472.298 30.362 488.01 43.336 C 492.523 47.099 495.34 51.01 496.171 54.809 C 497.012 58.649 495.823 62.655 492.881 66.362 C 475.961 87.168 408.406 103.256 311.353 109.525 C 293.557 110.675 222.579 111.151 203.003 110.256 Z"></path>
  <path id="Level_2" style="opacity: 1; fill: rgb(209, 154, 102); stroke: rgb(0, 0, 0); stroke-width: 7;" d="M 204.404 367.949 C 118.712 363.975 48.565 351.037 19.456 333.851 C 11.615 329.196 5.35 322.846 3.928 318.148 C 3.185 315.514 2.837 298.483 2.837 263.629 L 2.837 209.952 L 7.386 216.204 C 19.413 232.901 71.315 247.777 143.904 255.395 C 180.362 259.225 195.016 259.851 248.77 259.873 C 301.359 259.897 312.929 259.466 348.052 256.17 C 422.529 249.187 476.827 234.508 491.65 217.302 L 496.092 212.178 L 496.345 266.248 C 496.482 295.665 496.684 309.466 495.69 316.817 C 494.647 324.53 492.031 325.645 487.559 329.178 C 463.854 347.677 400.172 361.423 311.353 367.172 C 293.59 368.321 223.433 368.827 204.404 367.949 Z"></path>
  <path id="Level_3" style="opacity: 1; fill: rgb(152, 195, 121); stroke: rgb(0, 0, 0); stroke-width: 7;" d="M 218.884 239.515 C 110.747 236.488 23.309 217.768 6.318 194.059 L 3.304 189.815 L 3.058 137.007 C 2.938 111.102 2.882 97.969 3.076 91.613 C 3.174 88.406 3.355 86.727 3.665 86.051 C 3.787 85.784 4.133 85.405 4.422 85.297 C 4.763 85.169 5.341 85.303 5.56 85.449 C 5.865 85.652 6.168 86.051 6.392 86.36 C 30.895 120.403 189.816 140.392 338.731 128.171 C 394.793 123.579 440.633 114.601 468.637 102.718 C 480.913 97.52 487.892 93.194 492.026 88.183 L 496.572 82.719 L 496.572 137.254 C 496.572 166.776 496.734 180.438 495.738 187.666 C 495.229 191.361 494.348 193.584 493.027 195.243 C 491.702 196.908 489.929 198.091 487.673 199.95 C 456.081 225.854 340.352 242.897 218.884 239.515 Z"></path>
  <path id="Level_4" style="opacity: 1; fill: rgb(82, 139, 255); stroke: rgb(0, 0, 0); stroke-width: 7;" d="M 203.922 496.723 C 201.357 496.564 192.542 496.042 184.332 495.563 C 92.232 490.178 21.351 472.701 6.318 451.733 L 3.305 447.49 L 3.038 394.722 L 2.757 339.492 L 7.218 344.833 C 25.137 366.457 92.014 382.044 192.379 388.064 C 217.81 389.593 288.155 389.343 314.487 387.632 C 369.165 384.082 414.493 377.384 447.244 368.013 C 459.475 364.517 477.921 356.818 484.243 352.568 C 486.737 350.897 490.107 348.007 491.745 346.126 L 496.573 340.615 L 496.55 394.75 C 496.539 424.302 496.693 438.057 495.625 445.405 C 494.506 453.109 491.803 454.248 487.088 458.08 C 468.308 473.158 418.033 486.096 352.444 492.702 C 319.933 495.973 305.858 496.578 257.174 496.797 C 230.485 496.915 206.517 496.882 203.922 496.723 Z"></path>
</svg>