<?xml version="1.0" encoding="UTF-8"?>
<svg xmlns="http://www.w3.org/2000/svg"   width="600.000" height="600.000" viewBox="0.0 0.0 800.000 600.000" version="1.1">
  <title>Codes</title>
  <desc>Codes - Code Notes</desc>
  <path
     style="opacity:1;fill:#be5046;stroke:#000;stroke-width:7"
     d="M 350.60711,129.58413 C 228.95824,123.1873 141.74872,96.70032 141.74872,66.150376 c 0,-11.501428 13.56656,-22.987405 39.40609,-33.362723 76.3751,-30.6668157 241.27518,-39.5262975 361.94248,-19.445853 53.02783,8.82445 90.40828,21.963361 106.76462,37.526871 9.31617,8.864585 10.98076,17.595419 4.98198,26.130641 -17.52077,24.929018 -88.24756,44.144338 -190.31402,51.705218 -18.69782,1.3851 -93.34866,1.96149 -113.92276,0.8796 z"
     id="path2248" />
  <path
     style="opacity:1;fill:#d19a66;stroke:#000;stroke-width:7"
     d="m 352.08025,440.93056 c -90.12167,-4.79058 -163.70849,-20.33969 -194.17633,-41.03 -8.14556,-5.53155 -14.50246,-12.85082 -15.86672,-18.26878 -0.7622,-3.02694 -1.10689,-23.43486 -1.10689,-65.53403 v -61.13818 l 2.88508,4.54929 c 12.93719,20.39984 67.93576,38.61801 144.42883,47.84178 38.40585,4.6311 53.88264,5.39015 110.48544,5.41868 55.36788,0.0279 67.59617,-0.49608 104.59288,-4.48179 78.47827,-8.45458 135.977,-26.39388 151.83764,-47.37256 l 2.84196,-3.75903 0.25291,62.11375 c 0.28946,71.09291 0.84703,66.35972 -8.84343,75.07228 -24.73426,22.23823 -91.47275,38.71737 -184.88175,45.6512 -18.66517,1.38552 -92.44834,2.00059 -112.44962,0.93739 z"
     id="path2170" />
  <path
     style="opacity:1;fill:#98c379;stroke:#000;stroke-width:7"
     d="M 367.30269,285.75452 C 253.57972,282.11074 161.96259,259.7466 144.39842,231.34261 l -2.97706,-4.81437 -0.25807,-63.42291 c -0.25469,-62.59311 -0.2337,-63.384368 1.60392,-60.47664 26.14904,41.37641 193.8866,65.77323 350.7344,51.01306 59.0638,-5.55821 107.47358,-16.45353 137.0531,-30.8458 12.99478,-6.32276 20.54031,-11.72222 25.0165,-17.90142 l 2.92198,-4.03368 v 62.54937 c 0,71.35305 0.67996,65.68953 -8.98249,74.81699 -32.99177,31.16511 -154.45305,51.62069 -282.20801,47.52731 z"
     id="path2209" />
  <path
     style="opacity:1;fill:#528bff;stroke:#000;stroke-width:7"
     d="m 351.5892,596.51864 c -2.70075,-0.19188 -11.98153,-0.82282 -20.62394,-1.40209 -96.84185,-6.49093 -171.04659,-27.35246 -186.56684,-52.4504 l -2.97706,-4.81424 -0.28011,-63.37261 -0.2801,-63.37261 2.81991,3.87793 c 19.14357,26.32625 89.90631,45.37551 195.63199,52.66395 26.80019,1.84754 100.90602,1.54599 128.65415,-0.52351 57.59114,-4.29523 105.41031,-12.40992 139.94821,-23.74855 12.93283,-4.24579 32.49611,-13.62847 39.23995,-18.81974 2.67669,-2.06045 6.3227,-5.65523 8.10227,-7.9884 l 3.23556,-4.24211 -0.0216,62.19372 c -0.0247,71.42327 0.64572,66.12641 -9.56623,75.57373 -19.56882,18.1036 -72.20737,33.60466 -141.16344,41.56996 -34.18922,3.94929 -48.95171,4.67745 -100.17346,4.94104 -28.08785,0.14453 -53.27853,0.1058 -55.97928,-0.086 z"
     id="path2131" />
</svg>