<?xml version="1.0" encoding="UTF-8"?>
<!DOCTYPE svg PUBLIC "-//W3C//DTD SVG 1.1//EN" "http://www.w3.org/Graphics/SVG/1.1/DTD/svg11.dtd">
<svg xmlns="http://www.w3.org/2000/svg" version="1.1" width="840px" height="880px" style="shape-rendering:geometricPrecision; text-rendering:geometricPrecision; image-rendering:optimizeQuality; fill-rule:evenodd; clip-rule:evenodd" xmlns:xlink="http://www.w3.org/1999/xlink">
<g><path id="needle_BG" style="opacity:1" fill="none" d="M -0.5,-0.5 C 279.5,-0.5 559.5,-0.5 839.5,-0.5C 839.5,292.833 839.5,586.167 839.5,879.5C 559.5,879.5 279.5,879.5 -0.5,879.5C -0.5,586.167 -0.5,292.833 -0.5,-0.5 Z"/></g>
<g><path id="needle_bubble" style="opacity:1" fill="black" d="M 406.5,40.5 C 472.021,39.2699 534.354,52.6032 593.5,80.5C 610.745,65.0352 630.745,59.8685 653.5,65C 704.135,85.6343 740.302,121.134 762,171.5C 775.016,204.235 781.683,238.235 782,273.5C 831.473,386.908 830.473,499.908 779,612.5C 725.479,717.679 642.312,787.846 529.5,823C 400.633,856.368 282.799,833.868 176,755.5C 147.924,772.12 120.424,789.62 93.5,808C 87.3095,810.73 80.9761,813.063 74.5,815C 46.8655,818.018 31.8655,805.684 29.5,778C 29.4366,769.857 31.6032,762.357 36,755.5C 56.0804,727.016 74.9137,697.682 92.5,667.5C 30.0547,575.121 8.55468,473.788 28,363.5C 51.8427,252.23 111.009,165.397 205.5,103C 267.029,64.5456 334.029,43.7123 406.5,40.5 Z"/></g>
<g><path id="needle_BG" style="opacity:1" fill="#e9553b" d="M 630.5,97.5 C 637.342,97.0385 644.009,97.8718 650.5,100C 703.619,128.201 734.786,172.368 744,232.5C 752.51,276.43 747.01,318.43 727.5,358.5C 727.577,360.299 728.077,361.966 729,363.5C 744.729,378.56 759.729,394.227 774,410.5C 774.667,419.833 774.667,429.167 774,438.5C 695.052,519.45 615.219,599.95 534.5,680C 529.081,684.376 523.081,687.71 516.5,690C 508.086,691.637 500.419,689.97 493.5,685C 463.53,657.363 434.53,628.697 406.5,599C 402.619,595.357 398.285,594.69 393.5,597C 354.833,635.667 316.167,674.333 277.5,713C 266.76,722.552 255.093,723.885 242.5,717C 231.148,707.98 220.815,697.98 211.5,687C 209.919,686.293 208.419,685.46 207,684.5C 198.916,691.58 191.083,699.08 183.5,707C 156.868,727.323 128.868,745.657 99.5,762C 92.9888,766.423 86.6554,771.089 80.5,776C 75.5252,778.936 70.1918,780.769 64.5,781.5C 64.2114,778.351 64.7114,775.351 66,772.5C 86.6645,742.512 106.331,711.846 125,680.5C 135.935,667.562 147.602,655.229 160,643.5C 160.667,640.833 160.667,638.167 160,635.5C 151.694,628.527 144.027,620.86 137,612.5C 128.552,602.494 127.552,591.828 134,580.5C 172.358,539.809 211.692,500.142 252,461.5C 255.699,456.91 256.365,451.91 254,446.5C 242.336,435.836 231.003,424.836 220,413.5C 208.698,400.184 207.698,386.184 217,371.5C 228.732,360.288 241.899,358.455 256.5,366C 260.344,368.422 264.01,371.089 267.5,374C 346.915,453.748 426.581,533.082 506.5,612C 511.975,613.402 516.642,612.069 520.5,608C 579.612,547.888 639.112,488.054 699,428.5C 701.971,424.345 701.638,420.345 698,416.5C 687.605,407.194 677.772,397.36 668.5,387C 665.003,384.417 661.336,382.084 657.5,380C 654.581,379.448 651.914,380.115 649.5,382C 646.543,386.08 643.71,390.247 641,394.5C 637.179,397.743 633.179,400.743 629,403.5C 626.963,407.334 627.296,411.001 630,414.5C 636.299,419.79 641.133,426.123 644.5,433.5C 643.806,436.088 642.64,438.421 641,440.5C 602.657,479.217 564.157,518.05 525.5,557C 519.833,561.667 514.167,561.667 508.5,557C 488,535.167 466.833,514 445,493.5C 442.172,489.698 441.839,485.698 444,481.5C 483.474,442.36 522.64,402.86 561.5,363C 565.598,358.931 570.264,357.931 575.5,360C 581.469,364.967 587.135,370.301 592.5,376C 596.878,379.25 601.544,379.917 606.5,378C 614.265,372.239 621.431,365.739 628,358.5C 631.437,353.901 631.103,349.568 627,345.5C 602.833,322.667 579.333,299.167 556.5,275C 554.167,273.333 551.833,271.667 549.5,270C 547.365,269.365 545.365,269.699 543.5,271C 537.315,278.685 530.315,285.519 522.5,291.5C 518.53,295.657 517.696,300.324 520,305.5C 525.687,310.189 531.021,315.189 536,320.5C 537.04,324.533 536.374,328.199 534,331.5C 493.14,371.36 452.64,411.526 412.5,452C 408.516,453.686 404.85,453.019 401.5,450C 380.151,427.597 358.318,405.764 336,384.5C 333.247,380.667 332.914,376.667 335,372.5C 375.5,332 416,291.5 456.5,251C 459.8,249.121 463.134,249.121 466.5,251C 473.143,257.311 479.476,263.978 485.5,271C 490.321,273.973 494.988,273.64 499.5,270C 505.996,262.504 512.829,255.337 520,248.5C 522.037,244.666 521.704,240.999 519,237.5C 507.363,226.863 496.029,215.863 485,204.5C 480.662,198.824 477.662,192.49 476,185.5C 474.988,173.358 479.488,163.858 489.5,157C 502.665,150.364 514.998,151.697 526.5,161C 576.194,210.361 625.528,260.028 674.5,310C 678.351,312.497 681.184,311.663 683,307.5C 694.231,258.966 684.564,215.3 654,176.5C 650.133,172.298 645.967,168.465 641.5,165C 633.326,159.747 625.326,154.247 617.5,148.5C 605.298,133.453 605.632,118.62 618.5,104C 622.434,101.536 626.434,99.3694 630.5,97.5 Z"/></g>
</svg>
 